DataType=double
version=3
OpenSimVersion=4.5.2-2025-04-07-2c9fc5bc9
endheader
time	thorax_tilt	thorax_list	thorax_rotation	thorax_tx	thorax_ty	thorax_tz	neck_flexion	neck_bending	neck_rotation	sternoclavicular_r1	sternoclavicular_r2	sternoclavicular_r3	Acromioclavicular_r1	Acromioclavicular_r2	Acromioclavicular_r3	shoulder_plane	shoulder_ele	shoulder_rotation	elbow_flexion	pro_sup	hand_r_Add	hand_r_Flex	sternoclavicular_left_r1	sternoclavicular_left_r2	sternoclavicular_left_r3	Acromioclavicular_left_r1	Acromioclavicular_left_r2	Acromioclavicular_left_r3	shoulder_left_plane	shoulder_left_ele	shoulder_left_rotation	elbow_left_flexion	pro_sup_left	hand_left_Flex	hand_left_Add
4.851	-3.212372965743198	-0.4919745794889185	0.7428205659271161	0.29101977662936	-0.121999437884436	1.011313461903812	-0.04623292458918186	-0.06948603341814158	-0.1212770548343242	-0.01848917517618291	0.3308147711128827	0.3363555540978628	-2.260481155424009e-14	-1.064525090071833e-14	7.043110970663979e-15	-3.021670678328646	-0.2999264460065678	3.139932957513623	1.204529753302431	1.116380944336842	-0.3794377328582644	0.05803244482804258	-0.06101456678607588	-0.1414733123589523	0.03744322956587654	6.081950210664313e-18	-4.909563793533064e-18	-1.666147538223549e-15	-0.7807524437008846	0.6052893010362678	1.605870754731395	1.463702582180413	-0.4809485575613338	-0.4659607309144045	-0.1641049698336581
4.884	-3.212572868078292	-0.4946283537788964	0.7440509953628029	0.2907816944580643	-0.1223188607809683	1.011055340782386	-0.04180448912770373	-0.06592211653608628	-0.1056393724133834	-0.0228601336037804	0.326644615549837	0.340955338453274	-2.346559845578475e-14	-9.255011871928767e-15	6.873953067778914e-15	-3.020944344818822	-0.2999286466281437	3.139934943183213	1.204208614554567	1.109952883871651	-0.3791695691301981	0.05438768380152473	-0.06104488119690733	-0.1411305069306523	0.03926138662356064	5.90039905394273e-18	-8.760988998773718e-19	-5.620924594519525e-16	-0.7804526432403875	0.6088106765387686	1.608286115042232	1.462627370144223	-0.4996447867717962	-0.4630741364335533	-0.1655645325741678
4.917	-3.212888626963097	-0.4957544658867412	0.7453600946023573	0.2903926871676885	-0.1225700863559898	1.011101933628076	-0.03637504661733151	-0.06312392754989184	-0.09189812983408151	-0.02583527129751989	0.3222697059490462	0.3454756426827419	-2.439326937120115e-14	-1.065043892002072e-14	6.696744310532343e-15	-3.02147507542945	-0.2999294735258744	3.139929430833871	1.204913936093915	1.105187597504358	-0.3792824557444385	0.05388336240001319	-0.06281276415465746	-0.1402149756183778	0.04112938419364587	8.495266000680162e-18	2.953062535628048e-18	2.463123592089825e-16	-0.7792512333758046	0.6108763149151266	1.610258541499048	1.462105735811421	-0.5150118583057165	-0.4618056806483472	-0.1691058785518628
4.95	-3.213321644079031	-0.4946739397680333	0.7459710233263351	0.289961902429113	-0.1227197270739804	1.011471899681287	-0.03238463297798831	-0.06222554661890346	-0.0838747702497136	-0.02635866395826144	0.3194245943418558	0.3498573165215421	-2.370745198192175e-14	-1.113207606877006e-14	6.829115348440869e-15	-3.023086150645759	-0.2999287800798847	3.139921473633112	1.207228112636968	1.104156955951465	-0.3769403341185292	0.05721958285468173	-0.06583265990030285	-0.1392232833303693	0.04317654716273377	5.72778478622658e-18	5.150934339327533e-18	-1.218270195184027e-15	-0.7777308039716692	0.6106620830829952	1.611665965677962	1.461695092259236	-0.5272672897354128	-0.4624381274348907	-0.174170632055704
4.983000000000001	-3.213861307183723	-0.4919113410372991	0.7451873392431203	0.2896780072213535	-0.1227658324772692	1.011991232158547	-0.03219498805315719	-0.06277574557114897	-0.08403475769563418	-0.02463829311071422	0.3194376220521797	0.3541018758405132	-2.438728390736872e-14	-1.216932619379274e-14	6.044995477629666e-15	-3.024819376917235	-0.2999273566490023	3.139915391057689	1.209645828100435	1.10687810361288	-0.3719319240189795	0.06305558635437455	-0.06922201328530636	-0.1386599373380854	0.04538715678506582	-1.241068346882682e-15	2.515631125836379e-18	-6.718009666263366e-16	-0.7771587763995358	0.6084310177191691	1.613044871967411	1.461475676389194	-0.5369637208049299	-0.4641771625827438	-0.1797581470159935
5.016	-3.214265253709572	-0.4890441586726945	0.7433833343547571	0.2896522764813488	-0.1227404241628074	1.012334816705873	-0.03607224875300663	-0.0638080805794079	-0.09127209725447501	-0.02190636996610345	0.3219434084697086	0.3582553182185113	-2.495468498835211e-14	-1.247835011005831e-14	7.0003200592128e-15	-3.025699677062248	-0.2999267333987564	3.139913224006808	1.210212515942223	1.112421161506306	-0.3663333189756491	0.06952534883527411	-0.07218394766203912	-0.1386549644062671	0.04765446936031521	-1.325254207121686e-15	1.15708871532771e-18	-5.982660827353131e-16	-0.7783926416489256	0.6051526600008632	1.615055835693702	1.461890338656852	-0.5450181784825037	-0.4661411095094661	-0.1842970074067551
5.049	-3.21396281734869	-0.4882318118725688	0.7422446956909077	0.2898545646745937	-0.1226721379227612	1.012157627276477	-0.04080401041056253	-0.06466531368824582	-0.09890471135024276	-0.01984962218365881	0.3245329802980563	0.3623789560082755	-2.541234785629498e-14	-1.274192231481124e-14	8.705822807719786e-15	-3.02568172625363	-0.2999278490677419	3.139915794535503	1.20845346680303	1.121213296159071	-0.3615917045314918	0.07625773849133939	-0.0744202784760918	-0.1388491754624912	0.04987898334653799	-1.411053669945131e-15	-4.575242965665014e-19	-1.358556130795142e-15	-0.7800026788314786	0.6021816316097531	1.617030808234944	1.46274320432343	-0.5522020228507681	-0.4679707548597261	-0.1868023536890643
5.082	-3.212597934685153	-0.4906358009499747	0.7431194373196712	0.2901728769942513	-0.1225670535460453	1.01143021372266	-0.04155133907759885	-0.06532094733809458	-0.09847309800569568	-0.01990568755632958	0.3244230711536733	0.3665383550242808	-2.602220169129276e-14	-1.319786207182003e-14	9.514761938374332e-15	-3.025682267243053	-0.2999308489208103	3.139922740535598	1.205583940494465	1.133843151321337	-0.357133908686982	0.08329700993376088	-0.07604645129876086	-0.1387410592061583	0.05198920337446547	-1.500497557010186e-15	-1.81461793517075e-18	-9.171223843918298e-16	-0.7794451321674267	0.6007342736496415	1.617445785310694	1.463024807978996	-0.5587254629415294	-0.4694759315860131	-0.1873629570833853
5.115	-3.210641465123329	-0.4947921385197639	0.7454228557373584	0.2904771518350711	-0.1224413667416244	1.010608469982549	-0.03616430160049258	-0.06570654705618811	-0.08844222853035826	-0.02218625292950085	0.3211056375448639	0.3707822150225882	-2.61719573358761e-14	-1.377713147287083e-14	1.067184954542356e-14	-3.026640315039501	-0.2999362490114441	3.139931462395902	1.203381951219202	1.148016602686001	-0.3518285857590762	0.08886727590078614	-0.07733798860367763	-0.138305068592447	0.05392833551230514	-1.57337772865219e-15	-3.154767816065614e-18	-1.879983574356117e-16	-0.7763595106958102	0.6010990063350747	1.61599599347342	1.462038792998149	-0.5639666532546157	-0.4703199398661904	-0.1867721138271777
